<?xml version="1.0" encoding="UTF-8"?>
<svg width="200" height="200" viewBox="-8.0249 3.8115 225.8116 225.8116" version="1.1"
  xmlns="http://www.w3.org/2000/svg">
  <g id="layer1">
    <g id="g1" transform="matrix(0.26458333,0,0,0.26458333,-23.262426,-84.005206)">
      <path id="path1" fill="#23d4bc"
        d="M 7.7285156,0.44335938 10.6875,0.5625 13.681641,0.69335938 C 30.028581,2.4014414 50.327499,10.145724 65.140625,26.535156 80.124903,46.398768 85.935493,67.362912 83.375,92.1875 c -1.461762,9.82739 -4.054982,19.75934 -8.75,28.5625 -1.791466,2.92194 -1.791466,2.92194 -1.539063,5.10547 1.33387,3.12946 3.579104,5.29942 5.914063,7.70703 5.281774,5.60452 10.173986,11.43403 15,17.4375 1.007853,1.2289 2.017052,2.4567 3.027344,3.68359 7.130416,8.67729 14.005186,17.50864 20.669436,26.54883 1.15503,1.56658 2.31654,3.12838 3.479,4.68945 C 160.59568,239.32438 195.6183,304.31243 203,371 c 0.0928,0.77303 0.18562,1.54607 0.28125,2.34253 2.50293,23.3242 2.17105,48.6457 -2.28125,71.65747 -0.18272,0.94698 -0.36545,1.89396 -0.55371,2.86963 C 194.49827,477.18485 182.01891,506.37357 165,531 c -0.6832,1.01578 -1.36641,2.03156 -2.07031,3.07812 -7.42504,10.91765 -15.43107,21.2864 -24.02149,31.31055 -3.22897,3.77407 -6.30563,7.63093 -9.27539,11.61133 -1.58066,1.93613 -3.26587,3.69284 -5.04883,5.44238 -2.00072,1.96743 -3.97274,3.96234 -5.94726,5.95606 -1.64968,1.65892 -3.29942,3.31777 -4.94922,4.97656 -0.81662,0.825 -1.63324,1.65 -2.47461,2.5 C 106.30773,600.7997 101.2927,605.49599 96,610 c -1.164535,1.00857 -2.328613,2.01767 -3.492188,3.02734 C 85.77876,618.8267 78.994144,624.52094 72,630 c -1.351588,1.07158 -2.703148,2.1432 -4.054688,3.21484 -9.065323,7.15518 -18.26733,13.98156 -27.869628,20.39795 -2.210946,1.47761 -4.414892,2.96532 -6.618653,4.45362 -7.794156,5.24717 -15.633861,10.37466 -23.6718747,15.24218 -6.9307955,4.11414 -13.6562119,8.66126 -20.8476563,12.31641 -1.451984,0.71061 -2.903802,1.42156 -4.355469,2.13281 -0.752007,0.36642 -1.504013,0.73283 -2.278808,1.11035 -2.294253,1.12743 -4.575624,2.27739 -6.854004,3.43653 -0.725017,0.36786 -1.450034,0.73573 -2.197022,1.11474 -1.400497,0.71142 -2.799784,1.42523 -4.197754,2.14161 C -35.776229,698 -35.776229,698 -38,698 c 0,7.75217 0.0199,13.26594 0.05481,17.19601 0.239129,8.71656 0.246597,17.35559 -0.231418,26.05828 -0.297907,6.26015 -0.730557,12.29013 -4.823393,17.74571 -4.144871,3.03957 -8.866522,4.14447 -14,4 -4.912143,-0.93521 -8.979364,-2.87111 -11.964844,-7.05078 -4.388269,-8.2632 -4.142878,-16.46901 -3.476318,-25.50342 C -71.632434,718.63066 -72.411493,706.81285 -73,695 c -0.93457,-0.46148 -1.869141,-0.92297 -2.832031,-1.39844 -3.602757,-1.78508 -7.196084,-3.58844 -10.785645,-5.3999 -1.559614,-0.78668 -3.120443,-1.57095 -4.682617,-2.35254 -12.000677,-6.02721 -23.276677,-12.83727 -34.424077,-20.32226 -1.50853,-1.01217 -3.02104,-2.01844 -4.53759,-3.01856 C -144.21862,653.29675 -157.64549,643.28087 -170,632 c -0.54221,-0.49162 -1.08442,-0.98323 -1.64307,-1.48975 -1.57494,-1.4435 -3.12604,-2.90811 -4.66943,-4.38525 l -2.67578,-2.55469 C -181.30182,620.61437 -181.5176,618.65966 -182,615 c 4.39226,-0.28855 8.78476,-0.57322 13.17749,-0.85449 1.49063,-0.096 2.98119,-0.19296 4.47168,-0.29102 4.78232,-0.31422 9.5654,-0.59188 14.35083,-0.85449 0.93473,-0.0699 1.86946,-0.13986 2.83252,-0.21191 5.47254,-0.27323 8.05824,0.91099 12.16748,4.46191 1.12229,0.92906 2.24743,1.85469 3.375,2.77734 0.58781,0.4884 1.17563,0.97679 1.78125,1.47998 C -112.5235,635.52957 -92.822424,646.9459 -73,657 c 1.288976,-1.06471 1.288976,-1.06471 1.120746,-3.544 -0.002,-1.14606 -0.004,-2.29211 -0.0061,-3.47289 l 4.27e-4,-3.98984 c -0.0049,-1.48042 -0.0099,-2.96085 -0.01503,-4.44127 -0.0017,-1.55775 -0.003,-3.11549 -0.0038,-4.67324 -0.0036,-4.30158 -0.01342,-8.60312 -0.02415,-12.90469 -0.01045,-4.63141 -0.01511,-9.26283 -0.02033,-13.89425 -0.0097,-8.03325 -0.02278,-16.06648 -0.03772,-24.09972 -0.02333,-12.69681 -0.03636,-25.39362 -0.04769,-38.09045 -0.004,-4.3411 -0.0081,-8.68219 -0.01216,-13.02329 -0.0015,-1.62754 -0.0015,-1.62754 -0.0031,-3.28797 -0.01175,-12.36191 -0.02563,-24.72381 -0.04045,-37.08571 -0.002,-1.69578 -0.002,-1.69578 -0.0041,-3.42581 -0.02217,-18.31031 -0.05203,-36.62059 -0.08387,-54.93088 -0.03239,-18.78879 -0.05326,-37.57756 -0.06427,-56.36637 -0.0072,-11.59368 -0.02394,-23.18726 -0.0528,-34.7809 -0.019,-7.94836 -0.02708,-15.89669 -0.0266,-23.84507 -6.3e-5,-4.58639 -0.005,-9.17263 -0.02317,-13.75898 -0.01651,-4.20096 -0.0191,-8.40169 -0.01075,-12.60267 5.72e-4,-1.51762 -0.0039,-3.03526 -0.01406,-4.55285 -0.11333,-17.92209 -0.11333,-17.92209 5.743971,-25.16665 4.796606,-3.76876 8.529621,-4.58796 14.625,-4.0625 5.18039,1.69702 8.550428,3.76195 12,8 1.76777,4.34055 2.252482,8.00517 2.261713,12.67289 0.004,0.6485 0.008,1.29701 0.01211,1.96516 0.01096,2.17 0.0078,4.33973 0.0047,6.50975 0.005,1.5726 0.01088,3.1452 0.01755,4.7178 0.0158,4.31906 0.01923,8.63805 0.02065,12.95713 0.0037,4.65844 0.01885,9.31685 0.03261,13.97527 0.02228,8.07028 0.03729,16.14054 0.04737,24.21083 0.01458,11.6683 0.04012,23.33656 0.06833,35.00484 0.04547,18.93081 0.08209,37.86164 0.113138,56.79248 0.03018,18.38999 0.06453,36.77996 0.104492,55.16992 0.0037,1.70023 0.0037,1.70023 0.0075,3.4348 0.01238,5.68632 0.02483,11.37264 0.03733,17.05897 0.103578,47.1767 0.192778,94.35342 0.272595,141.53016 l 0.165942,3.28109 C -32.332149,658.05136 -8.3805568,645.52945 6.000082,636 c 1.5988287,-1.04837 3.1977877,-2.09655 4.796875,-3.14453 12.241558,-8.05893 23.971166,-16.57245 35.371094,-25.78125 2.460859,-1.98424 4.93916,-3.94049 7.445312,-5.86719 7.190163,-5.53471 13.958581,-11.33725 20.546875,-17.57812 C 77,581 77,581 79.558594,578.96484 c 2.103825,-1.69315 4.001831,-3.4562 5.887695,-5.38476 2.032737,-2.06724 4.103288,-4.09461 6.170898,-6.12696 1.752742,-1.73423 3.505342,-3.46861 5.257813,-5.20312 1.309043,-1.28391 1.309043,-1.28391 2.644531,-2.59375 23.204409,-26.44813 30.732479,-39.65881 35.820049,-46.32219 l 29.70876,-66.00545 c 3.49244,-15.01031 4.36357,-29.79525 4.32666,-45.14111 -8.8e-4,-0.89558 -0.002,-1.79115 -0.003,-2.71387 C 169.22091,352.30623 153.49509,308.03407 131,267 c -0.76885,-1.40403 -0.76885,-1.40403 -1.55322,-2.83643 C 122.79175,252.06917 115.84571,240.35527 108,229 c -1.33647,-2.01876 -2.66993,-4.03952 -4,-6.0625 C 89.741795,201.607 73.909942,181.41891 56.410156,162.65625 54.161789,160.17831 52.058577,157.63651 50,155 c -3.977961,2.82074 -7.76954,5.63466 -11.125,9.1875 C 33.467372,169.75418 27.159247,174.3086 21,179 c -0.609404,0.47019 -1.218809,0.94037 -1.84668,1.4248 -8.682307,6.68404 -17.5813159,12.458 -27.2714841,17.57715 -1.7187987,0.91158 -3.4223229,1.85181 -5.1240239,2.79492 -7.590071,4.04557 -15.434473,7.07623 -23.507812,10.01563 l -3.193115,1.16797 C -43.525682,212.56351 -62.928614,222.17476 -60,213 c 6.289459,-5.87881 12.604163,-11.60117 19.382813,-16.91797 4.738113,-3.76927 9.32148,-7.725 13.930664,-11.6499 1.680151,-1.42672 3.365889,-2.84653 5.053711,-4.26416 C -9.8401928,171.07022 0.52005017,160.58455 10.9375,150.125 29.369626,132.19112 44.804504,109.09959 46.058594,82.84375 45.86753,70.309971 42.050028,59.636005 33.46875,50.53125 32.667188,49.773924 22.246608,42.831012 16.625,40.875 L 13.789063,39.867187 C 7.4189106,37.886552 1.4338225,37.816725 -5.1875,37.8125 L -8.1894531,37.77539 C -15.10942,37.761778 -22.681454,37.840727 -29,41 c 8.359884,3.103944 16.139516,6.331083 22.6992188,12.605469 5.2815916,5.359591 13.447284,14.781687 13.654121,22.792279 L 3.2922363,75.816406 C -45.985997,70.73063 -95.612761,74.163168 -140.03516,97.949707 c -1.32869,0.710244 -2.66221,1.411526 -4,2.104493 -10.1009,5.23493 -18.62447,11.2116 -26.96484,18.9458 -0.84434,0.77473 -1.68867,1.54945 -2.55859,2.34766 -15.37492,14.7008 -22.46648,33.34909 -25.37891,54.02734 -1.48431,9.29253 -6.43148,16.32647 -11.63257,23.97412 -10.18461,15.05712 -19.64345,30.73021 -28.34497,46.68848 -1.16702,2.11082 -2.36971,4.19867 -3.57715,6.28662 -8.03033,14.0365 -14.55998,28.67743 -21.05664,43.46631 -1.40742,3.1127 -2.90222,6.16509 -4.45117,9.20947 -5.06159,-0.63024 -9.8841,-1.68138 -14.8125,-3 -12.77855,-3.26055 -25.04843,-4.53642 -37.1875,2 -5.19182,3.37769 -9.27747,7.00397 -13,12 -0.72316,0.93393 -0.72316,0.93393 -1.46094,1.88672 -6.37009,8.74675 -9.79561,19.49037 -11.53906,30.11328 -0.11086,0.65484 -0.22172,1.30969 -0.33594,1.98437 -6.80535,42.67473 18.10648,71.86277 18.39844,72.20313 3.67494,4.78207 7.92653,7.84794 7.9375,13.8125 -5.24695,0.45066 -8.76907,-0.98964 -13.25,-3.5 -0.65823,-0.36166 -1.31646,-0.72333 -1.99463,-1.09595 C -340.99372,428.16132 -346.1024,424.43398 -351,420 c -0.77988,-0.69867 -1.55977,-1.39734 -2.36328,-2.11719 C -359.02728,412.53296 -363.1587,406.75838 -367,400 c -0.46277,-0.8018 -0.92555,-1.60359 -1.40234,-2.42969 C -378.89761,378.11101 -378.49452,348.01576 -378,347 c 0.21173,-1.81756 0.41859,-3.6359 0.59448,-5.45728 2.49126,-25.48452 12.00827,-48.61627 31.72974,-65.4646 16.98307,-13.18977 37.17285,-17.1786 58.19531,-14.5664 1.14856,0.16113 2.29711,0.32226 3.48047,0.48828 0.48562,-3.56177 1.02452,-5.51921 4.75,-13.8125 3.53308,-8.10566 5.68179,-11.60526 7.98633,-15.17456 2.23747,-3.56413 4.15443,-7.30398 6.13867,-11.01294 6.50577,-11.9997 13.79288,-23.49338 21.125,-35 1.8111,-2.84591 3.6221,-5.69187 5.43311,-8.53784 1.93069,-3.02113 3.85015,-6.0493 5.75439,-9.08716 l 1.91797,-3.03906 c 4.02805,-7.0927 6.63356,-14.31802 8.83203,-22.14844 5.27106,-18.03014 12.82055,-32.94144 25.0625,-47.1875 4.21967,-4.469138 8.32164,-9.301634 12.8125,-13.625 0.58548,-0.531416 1.17095,-1.062832 1.77417,-1.610352 C -144.65253,50.907286 -91.04001,16.427831 -42.75,5 -26.213454,0.96051653 -9.2405853,-0.24818206 7.7285156,0.44335938 Z"
        transform="translate(571,377)" />
      <path id="path2" fill="#23d4bc"
        d="m 0,0 c 9.9210928,4.9570244 14.80792,14.443483 19.0625,24.25 32.644627,76.20271 93.37811,92.31716 98.25,97.5 -58.808905,25.36856 -176.06409,-27.679751 -170,-92 2.432403,-10.993913 8.960185,-19.470362 18,-26 C -24.205293,-2.2776583 -11.445114,-5.6361133 0,0 Z"
        transform="translate(303.6875,714.25)" />
      <path id="path3" fill="#23d4bc"
        d="M 0,0 C 8.1910838,7.7014713 11.339928,15.939775 12.082031,26.945312 11.956887,31.605433 10.68983,35.684727 9,40 5,40 5,40 2.484375,39.773437 -22.336783,42.037008 -42.438572,147.99314 -24.4375,187.28125 -33.243262,186.84221 -79.29024,140.26565 -72.781738,55.145508 -70.707265,36.384104 -64.286938,16.992651 -50,4 -35.379792,-6.8714367 -16.193014,-10.264168 0,0 Z"
        transform="translate(456,513)" />
      <path id="path4" fill="#23d4bc"
        d="M 0,0 C 56.05105,53.771639 96.948783,62.791599 103,62 76.964983,78.029539 40.403887,77.796362 11.4375,71.3125 -8.2382597,66.558687 -28.278768,56.663175 -40.273437,39.804687 -45.44178,31.218911 -46.911054,24.008576 -46,14 -43.978323,6.6805537 -38.891438,2.2497375 -32.5,-1.4453125 -21.070481,-7.3981872 -10.931824,-7.1906349 0,0 Z"
        transform="translate(346,903)" />
      <path id="path5" fill="#23d4bc"
        d="m 0,0 c 4.7542714,4.2869328 8.1141633,8.8710307 10,15 0,2.3125 0,2.3125 -1,4 -2.7950975,1.561966 -4.9926441,1.999423 -8.1875,2.25 -7.4313701,1.461909 -13.862565,5.80412 -18.503906,11.773437 -9.170505,13.851569 -10.354347,30.177248 -7.691406,46.335938 4.779934,23.415705 20.6754865,43.535555 40,56.914065 C 17.972389,138.4289 20,140.082 20,144 c -5.007012,1.2363 -8.709284,0.6014 -13.5,-1 -17.240923,-5.62924 -65.212879,-27.18542 -70.277344,-93.792969 -0.733027,-12.923444 1.481671,-26.915967 9.898438,-37.167968 C -40.034459,-2.985473 -18.945758,-13.485118 0,0 Z"
        transform="translate(300,841)" />
    </g>
  </g>
</svg>